<?xml version="1.0" encoding="utf-8" standalone="no"?>
<!DOCTYPE svg PUBLIC "-//W3C//DTD SVG 1.1//EN"
  "http://www.w3.org/Graphics/SVG/1.1/DTD/svg11.dtd">
<svg xmlns:xlink="http://www.w3.org/1999/xlink" width="504pt" height="216pt" viewBox="0 0 504 216" xmlns="http://www.w3.org/2000/svg" version="1.1">
 <metadata>
  <rdf:RDF xmlns:dc="http://purl.org/dc/elements/1.1/" xmlns:cc="http://creativecommons.org/ns#" xmlns:rdf="http://www.w3.org/1999/02/22-rdf-syntax-ns#">
   <cc:Work>
    <dc:type rdf:resource="http://purl.org/dc/dcmitype/StillImage"/>
    <dc:date>2024-06-03T09:51:35.658142</dc:date>
    <dc:format>image/svg+xml</dc:format>
    <dc:creator>
     <cc:Agent>
      <dc:title>Matplotlib v3.7.5, https://matplotlib.org/</dc:title>
     </cc:Agent>
    </dc:creator>
   </cc:Work>
  </rdf:RDF>
 </metadata>
 <defs>
  <style type="text/css">*{stroke-linejoin: round; stroke-linecap: butt}</style>
 </defs>
 <g id="figure_1">
  <g id="patch_1">
   <path d="M 0 216 
L 504 216 
L 504 0 
L 0 0 
z
" style="fill: #ffffff"/>
  </g>
  <g id="axes_1">
   <g id="patch_2">
    <path d="M 42.01 188.12 
L 484.772513 188.12 
L 484.772513 26.88 
L 42.01 26.88 
z
" style="fill: #ffffff"/>
   </g>
   <g id="matplotlib.axis_1">
    <g id="xtick_1">
     <g id="line2d_1">
      <defs>
       <path id="mbe5f8bf76c" d="M 0 0 
L 0 3.5 
" style="stroke: #000000; stroke-width: 0.8"/>
      </defs>
      <g>
       <use xlink:href="#mbe5f8bf76c" x="62.135569" y="188.12" style="stroke: #000000; stroke-width: 0.8"/>
      </g>
     </g>
     <g id="text_1">
      <!-- 0 -->
      <g transform="translate(58.954319 202.718437) scale(0.1 -0.1)">
       <defs>
        <path id="DejaVuSans-30" d="M 2034 4250 
Q 1547 4250 1301 3770 
Q 1056 3291 1056 2328 
Q 1056 1369 1301 889 
Q 1547 409 2034 409 
Q 2525 409 2770 889 
Q 3016 1369 3016 2328 
Q 3016 3291 2770 3770 
Q 2525 4250 2034 4250 
z
M 2034 4750 
Q 2819 4750 3233 4129 
Q 3647 3509 3647 2328 
Q 3647 1150 3233 529 
Q 2819 -91 2034 -91 
Q 1250 -91 836 529 
Q 422 1150 422 2328 
Q 422 3509 836 4129 
Q 1250 4750 2034 4750 
z
" transform="scale(0.015625)"/>
       </defs>
       <use xlink:href="#DejaVuSans-30"/>
      </g>
     </g>
    </g>
    <g id="xtick_2">
     <g id="line2d_2">
      <g>
       <use xlink:href="#mbe5f8bf76c" x="114.820304" y="188.12" style="stroke: #000000; stroke-width: 0.8"/>
      </g>
     </g>
     <g id="text_2">
      <!-- 25 -->
      <g transform="translate(108.457804 202.718437) scale(0.1 -0.1)">
       <defs>
        <path id="DejaVuSans-32" d="M 1228 531 
L 3431 531 
L 3431 0 
L 469 0 
L 469 531 
Q 828 903 1448 1529 
Q 2069 2156 2228 2338 
Q 2531 2678 2651 2914 
Q 2772 3150 2772 3378 
Q 2772 3750 2511 3984 
Q 2250 4219 1831 4219 
Q 1534 4219 1204 4116 
Q 875 4013 500 3803 
L 500 4441 
Q 881 4594 1212 4672 
Q 1544 4750 1819 4750 
Q 2544 4750 2975 4387 
Q 3406 4025 3406 3419 
Q 3406 3131 3298 2873 
Q 3191 2616 2906 2266 
Q 2828 2175 2409 1742 
Q 1991 1309 1228 531 
z
" transform="scale(0.015625)"/>
        <path id="DejaVuSans-35" d="M 691 4666 
L 3169 4666 
L 3169 4134 
L 1269 4134 
L 1269 2991 
Q 1406 3038 1543 3061 
Q 1681 3084 1819 3084 
Q 2600 3084 3056 2656 
Q 3513 2228 3513 1497 
Q 3513 744 3044 326 
Q 2575 -91 1722 -91 
Q 1428 -91 1123 -41 
Q 819 9 494 109 
L 494 744 
Q 775 591 1075 516 
Q 1375 441 1709 441 
Q 2250 441 2565 725 
Q 2881 1009 2881 1497 
Q 2881 1984 2565 2268 
Q 2250 2553 1709 2553 
Q 1456 2553 1204 2497 
Q 953 2441 691 2322 
L 691 4666 
z
" transform="scale(0.015625)"/>
       </defs>
       <use xlink:href="#DejaVuSans-32"/>
       <use xlink:href="#DejaVuSans-35" x="63.623047"/>
      </g>
     </g>
    </g>
    <g id="xtick_3">
     <g id="line2d_3">
      <g>
       <use xlink:href="#mbe5f8bf76c" x="167.505039" y="188.12" style="stroke: #000000; stroke-width: 0.8"/>
      </g>
     </g>
     <g id="text_3">
      <!-- 50 -->
      <g transform="translate(161.142539 202.718437) scale(0.1 -0.1)">
       <use xlink:href="#DejaVuSans-35"/>
       <use xlink:href="#DejaVuSans-30" x="63.623047"/>
      </g>
     </g>
    </g>
    <g id="xtick_4">
     <g id="line2d_4">
      <g>
       <use xlink:href="#mbe5f8bf76c" x="220.189774" y="188.12" style="stroke: #000000; stroke-width: 0.8"/>
      </g>
     </g>
     <g id="text_4">
      <!-- 75 -->
      <g transform="translate(213.827274 202.718437) scale(0.1 -0.1)">
       <defs>
        <path id="DejaVuSans-37" d="M 525 4666 
L 3525 4666 
L 3525 4397 
L 1831 0 
L 1172 0 
L 2766 4134 
L 525 4134 
L 525 4666 
z
" transform="scale(0.015625)"/>
       </defs>
       <use xlink:href="#DejaVuSans-37"/>
       <use xlink:href="#DejaVuSans-35" x="63.623047"/>
      </g>
     </g>
    </g>
    <g id="xtick_5">
     <g id="line2d_5">
      <g>
       <use xlink:href="#mbe5f8bf76c" x="272.874509" y="188.12" style="stroke: #000000; stroke-width: 0.8"/>
      </g>
     </g>
     <g id="text_5">
      <!-- 100 -->
      <g transform="translate(263.330759 202.718437) scale(0.1 -0.1)">
       <defs>
        <path id="DejaVuSans-31" d="M 794 531 
L 1825 531 
L 1825 4091 
L 703 3866 
L 703 4441 
L 1819 4666 
L 2450 4666 
L 2450 531 
L 3481 531 
L 3481 0 
L 794 0 
L 794 531 
z
" transform="scale(0.015625)"/>
       </defs>
       <use xlink:href="#DejaVuSans-31"/>
       <use xlink:href="#DejaVuSans-30" x="63.623047"/>
       <use xlink:href="#DejaVuSans-30" x="127.246094"/>
      </g>
     </g>
    </g>
    <g id="xtick_6">
     <g id="line2d_6">
      <g>
       <use xlink:href="#mbe5f8bf76c" x="325.559244" y="188.12" style="stroke: #000000; stroke-width: 0.8"/>
      </g>
     </g>
     <g id="text_6">
      <!-- 125 -->
      <g transform="translate(316.015494 202.718437) scale(0.1 -0.1)">
       <use xlink:href="#DejaVuSans-31"/>
       <use xlink:href="#DejaVuSans-32" x="63.623047"/>
       <use xlink:href="#DejaVuSans-35" x="127.246094"/>
      </g>
     </g>
    </g>
    <g id="xtick_7">
     <g id="line2d_7">
      <g>
       <use xlink:href="#mbe5f8bf76c" x="378.243979" y="188.12" style="stroke: #000000; stroke-width: 0.8"/>
      </g>
     </g>
     <g id="text_7">
      <!-- 150 -->
      <g transform="translate(368.700229 202.718437) scale(0.1 -0.1)">
       <use xlink:href="#DejaVuSans-31"/>
       <use xlink:href="#DejaVuSans-35" x="63.623047"/>
       <use xlink:href="#DejaVuSans-30" x="127.246094"/>
      </g>
     </g>
    </g>
    <g id="xtick_8">
     <g id="line2d_8">
      <g>
       <use xlink:href="#mbe5f8bf76c" x="430.928714" y="188.12" style="stroke: #000000; stroke-width: 0.8"/>
      </g>
     </g>
     <g id="text_8">
      <!-- 175 -->
      <g transform="translate(421.384964 202.718437) scale(0.1 -0.1)">
       <use xlink:href="#DejaVuSans-31"/>
       <use xlink:href="#DejaVuSans-37" x="63.623047"/>
       <use xlink:href="#DejaVuSans-35" x="127.246094"/>
      </g>
     </g>
    </g>
    <g id="xtick_9">
     <g id="line2d_9">
      <g>
       <use xlink:href="#mbe5f8bf76c" x="483.613449" y="188.12" style="stroke: #000000; stroke-width: 0.8"/>
      </g>
     </g>
     <g id="text_9">
      <!-- 200 -->
      <g transform="translate(474.069699 202.718437) scale(0.1 -0.1)">
       <use xlink:href="#DejaVuSans-32"/>
       <use xlink:href="#DejaVuSans-30" x="63.623047"/>
       <use xlink:href="#DejaVuSans-30" x="127.246094"/>
      </g>
     </g>
    </g>
   </g>
   <g id="matplotlib.axis_2">
    <g id="ytick_1">
     <g id="line2d_10">
      <defs>
       <path id="m566d4c6fe3" d="M 0 0 
L -3.5 0 
" style="stroke: #000000; stroke-width: 0.8"/>
      </defs>
      <g>
       <use xlink:href="#m566d4c6fe3" x="42.01" y="163.08655" style="stroke: #000000; stroke-width: 0.8"/>
      </g>
     </g>
     <g id="text_10">
      <!-- −1.0 -->
      <g transform="translate(10.727188 166.885768) scale(0.1 -0.1)">
       <defs>
        <path id="DejaVuSans-2212" d="M 678 2272 
L 4684 2272 
L 4684 1741 
L 678 1741 
L 678 2272 
z
" transform="scale(0.015625)"/>
        <path id="DejaVuSans-2e" d="M 684 794 
L 1344 794 
L 1344 0 
L 684 0 
L 684 794 
z
" transform="scale(0.015625)"/>
       </defs>
       <use xlink:href="#DejaVuSans-2212"/>
       <use xlink:href="#DejaVuSans-31" x="83.789062"/>
       <use xlink:href="#DejaVuSans-2e" x="147.412109"/>
       <use xlink:href="#DejaVuSans-30" x="179.199219"/>
      </g>
     </g>
    </g>
    <g id="ytick_2">
     <g id="line2d_11">
      <g>
       <use xlink:href="#m566d4c6fe3" x="42.01" y="130.208679" style="stroke: #000000; stroke-width: 0.8"/>
      </g>
     </g>
     <g id="text_11">
      <!-- −0.8 -->
      <g transform="translate(10.727188 134.007897) scale(0.1 -0.1)">
       <defs>
        <path id="DejaVuSans-38" d="M 2034 2216 
Q 1584 2216 1326 1975 
Q 1069 1734 1069 1313 
Q 1069 891 1326 650 
Q 1584 409 2034 409 
Q 2484 409 2743 651 
Q 3003 894 3003 1313 
Q 3003 1734 2745 1975 
Q 2488 2216 2034 2216 
z
M 1403 2484 
Q 997 2584 770 2862 
Q 544 3141 544 3541 
Q 544 4100 942 4425 
Q 1341 4750 2034 4750 
Q 2731 4750 3128 4425 
Q 3525 4100 3525 3541 
Q 3525 3141 3298 2862 
Q 3072 2584 2669 2484 
Q 3125 2378 3379 2068 
Q 3634 1759 3634 1313 
Q 3634 634 3220 271 
Q 2806 -91 2034 -91 
Q 1263 -91 848 271 
Q 434 634 434 1313 
Q 434 1759 690 2068 
Q 947 2378 1403 2484 
z
M 1172 3481 
Q 1172 3119 1398 2916 
Q 1625 2713 2034 2713 
Q 2441 2713 2670 2916 
Q 2900 3119 2900 3481 
Q 2900 3844 2670 4047 
Q 2441 4250 2034 4250 
Q 1625 4250 1398 4047 
Q 1172 3844 1172 3481 
z
" transform="scale(0.015625)"/>
       </defs>
       <use xlink:href="#DejaVuSans-2212"/>
       <use xlink:href="#DejaVuSans-30" x="83.789062"/>
       <use xlink:href="#DejaVuSans-2e" x="147.412109"/>
       <use xlink:href="#DejaVuSans-38" x="179.199219"/>
      </g>
     </g>
    </g>
    <g id="ytick_3">
     <g id="line2d_12">
      <g>
       <use xlink:href="#m566d4c6fe3" x="42.01" y="97.330808" style="stroke: #000000; stroke-width: 0.8"/>
      </g>
     </g>
     <g id="text_12">
      <!-- −0.6 -->
      <g transform="translate(10.727188 101.130026) scale(0.1 -0.1)">
       <defs>
        <path id="DejaVuSans-36" d="M 2113 2584 
Q 1688 2584 1439 2293 
Q 1191 2003 1191 1497 
Q 1191 994 1439 701 
Q 1688 409 2113 409 
Q 2538 409 2786 701 
Q 3034 994 3034 1497 
Q 3034 2003 2786 2293 
Q 2538 2584 2113 2584 
z
M 3366 4563 
L 3366 3988 
Q 3128 4100 2886 4159 
Q 2644 4219 2406 4219 
Q 1781 4219 1451 3797 
Q 1122 3375 1075 2522 
Q 1259 2794 1537 2939 
Q 1816 3084 2150 3084 
Q 2853 3084 3261 2657 
Q 3669 2231 3669 1497 
Q 3669 778 3244 343 
Q 2819 -91 2113 -91 
Q 1303 -91 875 529 
Q 447 1150 447 2328 
Q 447 3434 972 4092 
Q 1497 4750 2381 4750 
Q 2619 4750 2861 4703 
Q 3103 4656 3366 4563 
z
" transform="scale(0.015625)"/>
       </defs>
       <use xlink:href="#DejaVuSans-2212"/>
       <use xlink:href="#DejaVuSans-30" x="83.789062"/>
       <use xlink:href="#DejaVuSans-2e" x="147.412109"/>
       <use xlink:href="#DejaVuSans-36" x="179.199219"/>
      </g>
     </g>
    </g>
    <g id="ytick_4">
     <g id="line2d_13">
      <g>
       <use xlink:href="#m566d4c6fe3" x="42.01" y="64.452937" style="stroke: #000000; stroke-width: 0.8"/>
      </g>
     </g>
     <g id="text_13">
      <!-- −0.4 -->
      <g transform="translate(10.727188 68.252156) scale(0.1 -0.1)">
       <defs>
        <path id="DejaVuSans-34" d="M 2419 4116 
L 825 1625 
L 2419 1625 
L 2419 4116 
z
M 2253 4666 
L 3047 4666 
L 3047 1625 
L 3713 1625 
L 3713 1100 
L 3047 1100 
L 3047 0 
L 2419 0 
L 2419 1100 
L 313 1100 
L 313 1709 
L 2253 4666 
z
" transform="scale(0.015625)"/>
       </defs>
       <use xlink:href="#DejaVuSans-2212"/>
       <use xlink:href="#DejaVuSans-30" x="83.789062"/>
       <use xlink:href="#DejaVuSans-2e" x="147.412109"/>
       <use xlink:href="#DejaVuSans-34" x="179.199219"/>
      </g>
     </g>
    </g>
    <g id="ytick_5">
     <g id="line2d_14">
      <g>
       <use xlink:href="#m566d4c6fe3" x="42.01" y="31.575066" style="stroke: #000000; stroke-width: 0.8"/>
      </g>
     </g>
     <g id="text_14">
      <!-- −0.2 -->
      <g transform="translate(10.727188 35.374285) scale(0.1 -0.1)">
       <use xlink:href="#DejaVuSans-2212"/>
       <use xlink:href="#DejaVuSans-30" x="83.789062"/>
       <use xlink:href="#DejaVuSans-2e" x="147.412109"/>
       <use xlink:href="#DejaVuSans-32" x="179.199219"/>
      </g>
     </g>
    </g>
   </g>
   <g id="line2d_15">
    <path d="M 62.135569 155.576149 
L 64.242958 153.049306 
L 68.457737 153.049306 
L 70.565126 151.79484 
L 72.672516 153.049306 
L 81.102073 163.138794 
L 83.209463 161.866398 
L 85.316852 166.920103 
L 87.424242 166.920103 
L 89.531631 161.866398 
L 91.63902 168.174568 
L 93.74641 165.647726 
L 95.853799 165.647726 
L 97.961189 164.39326 
L 100.068578 165.647726 
L 102.175967 169.446945 
L 106.390746 174.482739 
L 108.498136 179.518532 
L 110.605525 180.790909 
L 112.712914 174.482739 
L 114.820304 174.482739 
L 116.927693 171.955896 
L 119.035083 173.228273 
L 121.142472 171.955896 
L 123.249861 171.955896 
L 125.357251 174.482739 
L 127.46464 168.174568 
L 129.57203 168.174568 
L 131.679419 155.576149 
L 133.786808 161.866398 
L 135.894198 154.303762 
L 138.001587 140.450886 
L 140.108977 149.267998 
L 142.216366 150.522454 
L 144.323755 141.705342 
L 146.431145 145.48667 
L 148.538534 144.232204 
L 150.645924 145.48667 
L 152.753313 144.232204 
L 154.860702 140.450886 
L 156.968092 137.924034 
L 159.075481 140.450886 
L 163.29026 115.236136 
L 165.397649 103.87427 
L 167.505039 102.619795 
L 169.612428 98.838487 
L 171.719818 105.146638 
L 173.827207 100.092942 
L 175.934596 103.87427 
L 178.041986 108.927965 
L 180.149375 103.87427 
L 182.256765 105.146638 
L 184.364154 105.146638 
L 186.471543 101.365329 
L 188.578933 102.619795 
L 190.686322 91.275851 
L 192.793712 98.838487 
L 194.901101 92.530316 
L 199.11588 92.530316 
L 201.223269 91.275851 
L 203.330659 98.838487 
L 205.438048 105.146638 
L 207.545437 106.401113 
L 209.652827 112.709293 
L 211.760216 111.454818 
L 213.867606 115.236136 
L 215.974995 117.745057 
L 218.082384 121.526385 
L 220.189774 122.798772 
L 222.297163 120.271919 
L 224.404553 122.798772 
L 226.511942 126.58008 
L 228.619331 127.834555 
L 230.726721 130.361408 
L 232.83411 134.142716 
L 234.9415 135.397191 
L 237.048889 130.361408 
L 239.156278 131.615864 
L 241.263668 134.142716 
L 243.371057 134.142716 
L 245.478447 125.307693 
L 247.585836 130.361408 
L 249.693225 132.870339 
L 251.800615 129.089011 
L 253.908004 134.142716 
L 256.015394 134.142716 
L 258.122783 126.58008 
L 260.230172 126.58008 
L 262.337562 130.361408 
L 264.444951 136.669578 
L 268.65973 131.615864 
L 270.767119 136.669578 
L 272.874509 134.142716 
L 274.981898 134.142716 
L 277.089288 140.450886 
L 279.196677 140.450886 
L 281.304066 148.013513 
L 283.411456 142.959818 
L 287.626235 127.834555 
L 289.733624 136.669578 
L 291.841013 129.089011 
L 293.948403 127.834555 
L 296.055792 127.834555 
L 298.163182 125.307693 
L 300.270571 117.745057 
L 302.37796 107.67351 
L 304.48535 111.454818 
L 308.700129 113.963749 
L 310.807518 111.454818 
L 312.914907 112.709293 
L 315.022297 119.017444 
L 317.129686 124.053228 
L 319.237076 116.490601 
L 321.344465 113.963749 
L 323.451854 110.182421 
L 325.559244 108.927965 
L 327.666633 112.709293 
L 329.774023 102.619795 
L 331.881412 96.311624 
L 333.988801 88.748988 
L 336.096191 92.530316 
L 338.20358 105.146638 
L 340.31097 98.838487 
L 342.418359 101.365329 
L 344.525748 102.619795 
L 346.633138 102.619795 
L 348.740527 100.092942 
L 350.847917 100.092942 
L 355.062695 90.021375 
L 357.170085 81.186352 
L 359.277474 86.240067 
L 361.384864 83.713215 
L 363.492253 84.96768 
L 365.599642 66.06109 
L 367.707032 67.315566 
L 369.814421 61.025307 
L 371.921811 59.752915 
L 374.0292 59.752915 
L 376.136589 61.025307 
L 378.243979 71.096874 
L 380.351368 76.150569 
L 382.458758 79.931897 
L 384.566147 76.150569 
L 386.673536 77.405044 
L 388.780926 64.80663 
L 395.103094 72.369261 
L 397.210483 79.931897 
L 399.317873 74.878197 
L 401.425262 78.677436 
L 403.532652 77.405044 
L 405.640041 83.713215 
L 407.74743 95.057159 
L 409.85482 100.092942 
L 411.962209 98.838487 
L 414.069599 100.092942 
L 416.176988 97.584011 
L 418.284377 105.146638 
L 420.391767 115.236136 
L 422.499156 119.017444 
L 424.606546 117.745057 
L 426.713935 121.526385 
L 428.821325 121.526385 
L 430.928714 122.798772 
L 433.036103 125.307693 
L 435.143493 125.307693 
L 437.250882 126.58008 
L 439.358272 129.089011 
L 441.465661 130.361408 
L 443.57305 130.361408 
L 445.68044 131.615864 
L 447.787829 130.361408 
L 449.895219 130.361408 
L 452.002608 131.615864 
L 454.109997 134.142716 
L 456.217387 135.397191 
L 458.324776 134.142716 
L 460.432166 134.142716 
L 462.539555 130.361408 
L 464.646944 127.834555 
L 464.646944 127.834555 
" clip-path="url(#p3cfc2390d9)" style="fill: none; stroke: #1f77b4; stroke-width: 1.5; stroke-linecap: square"/>
   </g>
   <g id="line2d_16">
    <path d="M 62.135569 128.276736 
L 64.242958 126.275566 
L 66.350348 125.005443 
L 68.457737 119.958646 
L 70.565126 112.623303 
L 72.672516 123.193822 
L 74.779905 110.57709 
L 76.887295 82.790277 
L 78.994684 115.72772 
L 81.102073 105.312112 
L 83.209463 102.061131 
L 85.316852 106.401838 
L 87.424242 143.890447 
L 89.531631 131.7482 
L 91.63902 144.827896 
L 93.74641 129.948838 
L 95.853799 126.536262 
L 97.961189 99.219584 
L 100.068578 113.114769 
L 102.175967 105.297699 
L 104.283357 116.181032 
L 106.390746 119.732813 
L 108.498136 124.34324 
L 110.605525 130.338597 
L 112.712914 132.750231 
L 114.820304 133.096074 
L 116.927693 132.498726 
L 119.035083 131.663827 
L 121.142472 130.338146 
L 123.249861 127.420839 
L 127.46464 120.72189 
L 129.57203 117.997179 
L 131.679419 115.862516 
L 135.894198 110.134987 
L 138.001587 108.475575 
L 140.108977 104.74123 
L 142.216366 101.666531 
L 146.431145 96.189057 
L 148.538534 92.526123 
L 150.645924 89.922892 
L 152.753313 86.599912 
L 154.860702 84.052072 
L 161.182871 78.61407 
L 163.29026 63.178484 
L 165.397649 72.154412 
L 167.505039 79.098555 
L 169.612428 75.010048 
L 171.719818 51.613758 
L 173.827207 66.686099 
L 175.934596 59.214514 
L 178.041986 53.774014 
L 180.149375 55.413594 
L 182.256765 56.893413 
L 184.364154 58.98925 
L 186.471543 57.657039 
L 188.578933 66.109323 
L 190.686322 66.535527 
L 192.793712 65.767374 
L 194.901101 65.638844 
L 197.00849 65.294069 
L 199.11588 66.130125 
L 201.223269 66.646239 
L 203.330659 68.925291 
L 205.438048 70.284961 
L 207.545437 72.28109 
L 209.652827 73.75112 
L 211.760216 74.949813 
L 213.867606 75.840401 
L 215.974995 76.954109 
L 218.082384 76.999759 
L 222.297163 78.388619 
L 224.404553 79.316275 
L 226.511942 80.787951 
L 228.619331 82.772816 
L 230.726721 84.161382 
L 232.83411 84.65474 
L 234.9415 85.27433 
L 237.048889 85.176875 
L 239.156278 101.792509 
L 241.263668 103.604168 
L 243.371057 106.328478 
L 245.478447 98.571991 
L 247.585836 78.427421 
L 249.693225 84.985846 
L 251.800615 74.736351 
L 253.908004 92.952773 
L 256.015394 88.299576 
L 258.122783 89.460781 
L 260.230172 90.17129 
L 262.337562 89.808917 
L 264.444951 92.72016 
L 266.552341 92.943582 
L 268.65973 93.399745 
L 270.767119 94.653035 
L 272.874509 97.551314 
L 274.981898 94.550554 
L 277.089288 94.262962 
L 279.196677 94.977919 
L 281.304066 96.362694 
L 285.518845 97.502381 
L 287.626235 97.827432 
L 291.841013 98.968197 
L 293.948403 97.817693 
L 296.055792 96.91151 
L 298.163182 96.765701 
L 300.270571 92.594574 
L 302.37796 95.610806 
L 304.48535 95.965027 
L 306.592739 93.486441 
L 308.700129 92.268935 
L 310.807518 94.613606 
L 312.914907 89.118642 
L 315.022297 108.561271 
L 317.129686 100.650068 
L 319.237076 107.7221 
L 321.344465 99.435874 
L 323.451854 74.779032 
L 325.559244 75.875308 
L 327.666633 74.475959 
L 329.774023 80.226406 
L 331.881412 75.469073 
L 333.988801 68.681208 
L 336.096191 66.830478 
L 338.20358 69.333148 
L 340.31097 60.224814 
L 344.525748 55.75833 
L 346.633138 54.786754 
L 348.740527 53.399001 
L 350.847917 51.80561 
L 352.955306 49.68488 
L 355.062695 47.780503 
L 357.170085 45.421786 
L 359.277474 45.350326 
L 363.492253 42.548267 
L 365.599642 42.669909 
L 369.814421 43.080544 
L 374.0292 45.621903 
L 378.243979 47.054635 
L 380.351368 48.381001 
L 382.458758 48.717222 
L 384.566147 49.51382 
L 386.673536 49.941788 
L 388.780926 49.913226 
L 390.888315 45.008902 
L 392.995705 53.1223 
L 395.103094 57.004134 
L 397.210483 40.324042 
L 399.317873 62.746204 
L 403.532652 80.228513 
L 405.640041 34.209091 
L 407.74743 38.781309 
L 409.85482 41.338463 
L 411.962209 42.746145 
L 414.069599 43.085056 
L 416.176988 43.785968 
L 420.391767 47.710665 
L 422.499156 50.512485 
L 424.606546 52.514404 
L 426.713935 53.78827 
L 428.821325 54.903104 
L 430.928714 55.699423 
L 435.143493 56.172718 
L 437.250882 56.606575 
L 439.358272 56.742778 
L 441.465661 56.502703 
L 443.57305 56.481617 
L 445.68044 56.960914 
L 449.895219 57.494357 
L 452.002608 58.013077 
L 454.109997 58.814354 
L 456.217387 59.426213 
L 460.432166 61.035007 
L 462.539555 62.144555 
L 464.646944 63.428156 
L 464.646944 63.428156 
" clip-path="url(#p3cfc2390d9)" style="fill: none; stroke: #ff7f0e; stroke-width: 1.5; stroke-linecap: square"/>
   </g>
   <g id="patch_3">
    <path d="M 42.01 188.12 
L 42.01 26.88 
" style="fill: none; stroke: #000000; stroke-width: 0.8; stroke-linejoin: miter; stroke-linecap: square"/>
   </g>
   <g id="patch_4">
    <path d="M 484.772513 188.12 
L 484.772513 26.88 
" style="fill: none; stroke: #000000; stroke-width: 0.8; stroke-linejoin: miter; stroke-linecap: square"/>
   </g>
   <g id="patch_5">
    <path d="M 42.01 188.12 
L 484.772513 188.12 
" style="fill: none; stroke: #000000; stroke-width: 0.8; stroke-linejoin: miter; stroke-linecap: square"/>
   </g>
   <g id="patch_6">
    <path d="M 42.01 26.88 
L 484.772513 26.88 
" style="fill: none; stroke: #000000; stroke-width: 0.8; stroke-linejoin: miter; stroke-linecap: square"/>
   </g>
   <g id="text_15">
    <!-- Oil Temperature (informer, Index: 100) -->
    <g transform="translate(147.504069 20.88) scale(0.12 -0.12)">
     <defs>
      <path id="DejaVuSans-4f" d="M 2522 4238 
Q 1834 4238 1429 3725 
Q 1025 3213 1025 2328 
Q 1025 1447 1429 934 
Q 1834 422 2522 422 
Q 3209 422 3611 934 
Q 4013 1447 4013 2328 
Q 4013 3213 3611 3725 
Q 3209 4238 2522 4238 
z
M 2522 4750 
Q 3503 4750 4090 4092 
Q 4678 3434 4678 2328 
Q 4678 1225 4090 567 
Q 3503 -91 2522 -91 
Q 1538 -91 948 565 
Q 359 1222 359 2328 
Q 359 3434 948 4092 
Q 1538 4750 2522 4750 
z
" transform="scale(0.015625)"/>
      <path id="DejaVuSans-69" d="M 603 3500 
L 1178 3500 
L 1178 0 
L 603 0 
L 603 3500 
z
M 603 4863 
L 1178 4863 
L 1178 4134 
L 603 4134 
L 603 4863 
z
" transform="scale(0.015625)"/>
      <path id="DejaVuSans-6c" d="M 603 4863 
L 1178 4863 
L 1178 0 
L 603 0 
L 603 4863 
z
" transform="scale(0.015625)"/>
      <path id="DejaVuSans-20" transform="scale(0.015625)"/>
      <path id="DejaVuSans-54" d="M -19 4666 
L 3928 4666 
L 3928 4134 
L 2272 4134 
L 2272 0 
L 1638 0 
L 1638 4134 
L -19 4134 
L -19 4666 
z
" transform="scale(0.015625)"/>
      <path id="DejaVuSans-65" d="M 3597 1894 
L 3597 1613 
L 953 1613 
Q 991 1019 1311 708 
Q 1631 397 2203 397 
Q 2534 397 2845 478 
Q 3156 559 3463 722 
L 3463 178 
Q 3153 47 2828 -22 
Q 2503 -91 2169 -91 
Q 1331 -91 842 396 
Q 353 884 353 1716 
Q 353 2575 817 3079 
Q 1281 3584 2069 3584 
Q 2775 3584 3186 3129 
Q 3597 2675 3597 1894 
z
M 3022 2063 
Q 3016 2534 2758 2815 
Q 2500 3097 2075 3097 
Q 1594 3097 1305 2825 
Q 1016 2553 972 2059 
L 3022 2063 
z
" transform="scale(0.015625)"/>
      <path id="DejaVuSans-6d" d="M 3328 2828 
Q 3544 3216 3844 3400 
Q 4144 3584 4550 3584 
Q 5097 3584 5394 3201 
Q 5691 2819 5691 2113 
L 5691 0 
L 5113 0 
L 5113 2094 
Q 5113 2597 4934 2840 
Q 4756 3084 4391 3084 
Q 3944 3084 3684 2787 
Q 3425 2491 3425 1978 
L 3425 0 
L 2847 0 
L 2847 2094 
Q 2847 2600 2669 2842 
Q 2491 3084 2119 3084 
Q 1678 3084 1418 2786 
Q 1159 2488 1159 1978 
L 1159 0 
L 581 0 
L 581 3500 
L 1159 3500 
L 1159 2956 
Q 1356 3278 1631 3431 
Q 1906 3584 2284 3584 
Q 2666 3584 2933 3390 
Q 3200 3197 3328 2828 
z
" transform="scale(0.015625)"/>
      <path id="DejaVuSans-70" d="M 1159 525 
L 1159 -1331 
L 581 -1331 
L 581 3500 
L 1159 3500 
L 1159 2969 
Q 1341 3281 1617 3432 
Q 1894 3584 2278 3584 
Q 2916 3584 3314 3078 
Q 3713 2572 3713 1747 
Q 3713 922 3314 415 
Q 2916 -91 2278 -91 
Q 1894 -91 1617 61 
Q 1341 213 1159 525 
z
M 3116 1747 
Q 3116 2381 2855 2742 
Q 2594 3103 2138 3103 
Q 1681 3103 1420 2742 
Q 1159 2381 1159 1747 
Q 1159 1113 1420 752 
Q 1681 391 2138 391 
Q 2594 391 2855 752 
Q 3116 1113 3116 1747 
z
" transform="scale(0.015625)"/>
      <path id="DejaVuSans-72" d="M 2631 2963 
Q 2534 3019 2420 3045 
Q 2306 3072 2169 3072 
Q 1681 3072 1420 2755 
Q 1159 2438 1159 1844 
L 1159 0 
L 581 0 
L 581 3500 
L 1159 3500 
L 1159 2956 
Q 1341 3275 1631 3429 
Q 1922 3584 2338 3584 
Q 2397 3584 2469 3576 
Q 2541 3569 2628 3553 
L 2631 2963 
z
" transform="scale(0.015625)"/>
      <path id="DejaVuSans-61" d="M 2194 1759 
Q 1497 1759 1228 1600 
Q 959 1441 959 1056 
Q 959 750 1161 570 
Q 1363 391 1709 391 
Q 2188 391 2477 730 
Q 2766 1069 2766 1631 
L 2766 1759 
L 2194 1759 
z
M 3341 1997 
L 3341 0 
L 2766 0 
L 2766 531 
Q 2569 213 2275 61 
Q 1981 -91 1556 -91 
Q 1019 -91 701 211 
Q 384 513 384 1019 
Q 384 1609 779 1909 
Q 1175 2209 1959 2209 
L 2766 2209 
L 2766 2266 
Q 2766 2663 2505 2880 
Q 2244 3097 1772 3097 
Q 1472 3097 1187 3025 
Q 903 2953 641 2809 
L 641 3341 
Q 956 3463 1253 3523 
Q 1550 3584 1831 3584 
Q 2591 3584 2966 3190 
Q 3341 2797 3341 1997 
z
" transform="scale(0.015625)"/>
      <path id="DejaVuSans-74" d="M 1172 4494 
L 1172 3500 
L 2356 3500 
L 2356 3053 
L 1172 3053 
L 1172 1153 
Q 1172 725 1289 603 
Q 1406 481 1766 481 
L 2356 481 
L 2356 0 
L 1766 0 
Q 1100 0 847 248 
Q 594 497 594 1153 
L 594 3053 
L 172 3053 
L 172 3500 
L 594 3500 
L 594 4494 
L 1172 4494 
z
" transform="scale(0.015625)"/>
      <path id="DejaVuSans-75" d="M 544 1381 
L 544 3500 
L 1119 3500 
L 1119 1403 
Q 1119 906 1312 657 
Q 1506 409 1894 409 
Q 2359 409 2629 706 
Q 2900 1003 2900 1516 
L 2900 3500 
L 3475 3500 
L 3475 0 
L 2900 0 
L 2900 538 
Q 2691 219 2414 64 
Q 2138 -91 1772 -91 
Q 1169 -91 856 284 
Q 544 659 544 1381 
z
M 1991 3584 
L 1991 3584 
z
" transform="scale(0.015625)"/>
      <path id="DejaVuSans-28" d="M 1984 4856 
Q 1566 4138 1362 3434 
Q 1159 2731 1159 2009 
Q 1159 1288 1364 580 
Q 1569 -128 1984 -844 
L 1484 -844 
Q 1016 -109 783 600 
Q 550 1309 550 2009 
Q 550 2706 781 3412 
Q 1013 4119 1484 4856 
L 1984 4856 
z
" transform="scale(0.015625)"/>
      <path id="DejaVuSans-6e" d="M 3513 2113 
L 3513 0 
L 2938 0 
L 2938 2094 
Q 2938 2591 2744 2837 
Q 2550 3084 2163 3084 
Q 1697 3084 1428 2787 
Q 1159 2491 1159 1978 
L 1159 0 
L 581 0 
L 581 3500 
L 1159 3500 
L 1159 2956 
Q 1366 3272 1645 3428 
Q 1925 3584 2291 3584 
Q 2894 3584 3203 3211 
Q 3513 2838 3513 2113 
z
" transform="scale(0.015625)"/>
      <path id="DejaVuSans-66" d="M 2375 4863 
L 2375 4384 
L 1825 4384 
Q 1516 4384 1395 4259 
Q 1275 4134 1275 3809 
L 1275 3500 
L 2222 3500 
L 2222 3053 
L 1275 3053 
L 1275 0 
L 697 0 
L 697 3053 
L 147 3053 
L 147 3500 
L 697 3500 
L 697 3744 
Q 697 4328 969 4595 
Q 1241 4863 1831 4863 
L 2375 4863 
z
" transform="scale(0.015625)"/>
      <path id="DejaVuSans-6f" d="M 1959 3097 
Q 1497 3097 1228 2736 
Q 959 2375 959 1747 
Q 959 1119 1226 758 
Q 1494 397 1959 397 
Q 2419 397 2687 759 
Q 2956 1122 2956 1747 
Q 2956 2369 2687 2733 
Q 2419 3097 1959 3097 
z
M 1959 3584 
Q 2709 3584 3137 3096 
Q 3566 2609 3566 1747 
Q 3566 888 3137 398 
Q 2709 -91 1959 -91 
Q 1206 -91 779 398 
Q 353 888 353 1747 
Q 353 2609 779 3096 
Q 1206 3584 1959 3584 
z
" transform="scale(0.015625)"/>
      <path id="DejaVuSans-2c" d="M 750 794 
L 1409 794 
L 1409 256 
L 897 -744 
L 494 -744 
L 750 256 
L 750 794 
z
" transform="scale(0.015625)"/>
      <path id="DejaVuSans-49" d="M 628 4666 
L 1259 4666 
L 1259 0 
L 628 0 
L 628 4666 
z
" transform="scale(0.015625)"/>
      <path id="DejaVuSans-64" d="M 2906 2969 
L 2906 4863 
L 3481 4863 
L 3481 0 
L 2906 0 
L 2906 525 
Q 2725 213 2448 61 
Q 2172 -91 1784 -91 
Q 1150 -91 751 415 
Q 353 922 353 1747 
Q 353 2572 751 3078 
Q 1150 3584 1784 3584 
Q 2172 3584 2448 3432 
Q 2725 3281 2906 2969 
z
M 947 1747 
Q 947 1113 1208 752 
Q 1469 391 1925 391 
Q 2381 391 2643 752 
Q 2906 1113 2906 1747 
Q 2906 2381 2643 2742 
Q 2381 3103 1925 3103 
Q 1469 3103 1208 2742 
Q 947 2381 947 1747 
z
" transform="scale(0.015625)"/>
      <path id="DejaVuSans-78" d="M 3513 3500 
L 2247 1797 
L 3578 0 
L 2900 0 
L 1881 1375 
L 863 0 
L 184 0 
L 1544 1831 
L 300 3500 
L 978 3500 
L 1906 2253 
L 2834 3500 
L 3513 3500 
z
" transform="scale(0.015625)"/>
      <path id="DejaVuSans-3a" d="M 750 794 
L 1409 794 
L 1409 0 
L 750 0 
L 750 794 
z
M 750 3309 
L 1409 3309 
L 1409 2516 
L 750 2516 
L 750 3309 
z
" transform="scale(0.015625)"/>
      <path id="DejaVuSans-29" d="M 513 4856 
L 1013 4856 
Q 1481 4119 1714 3412 
Q 1947 2706 1947 2009 
Q 1947 1309 1714 600 
Q 1481 -109 1013 -844 
L 513 -844 
Q 928 -128 1133 580 
Q 1338 1288 1338 2009 
Q 1338 2731 1133 3434 
Q 928 4138 513 4856 
z
" transform="scale(0.015625)"/>
     </defs>
     <use xlink:href="#DejaVuSans-4f"/>
     <use xlink:href="#DejaVuSans-69" x="78.710938"/>
     <use xlink:href="#DejaVuSans-6c" x="106.494141"/>
     <use xlink:href="#DejaVuSans-20" x="134.277344"/>
     <use xlink:href="#DejaVuSans-54" x="166.064453"/>
     <use xlink:href="#DejaVuSans-65" x="210.148438"/>
     <use xlink:href="#DejaVuSans-6d" x="271.671875"/>
     <use xlink:href="#DejaVuSans-70" x="369.083984"/>
     <use xlink:href="#DejaVuSans-65" x="432.560547"/>
     <use xlink:href="#DejaVuSans-72" x="494.083984"/>
     <use xlink:href="#DejaVuSans-61" x="535.197266"/>
     <use xlink:href="#DejaVuSans-74" x="596.476562"/>
     <use xlink:href="#DejaVuSans-75" x="635.685547"/>
     <use xlink:href="#DejaVuSans-72" x="699.064453"/>
     <use xlink:href="#DejaVuSans-65" x="737.927734"/>
     <use xlink:href="#DejaVuSans-20" x="799.451172"/>
     <use xlink:href="#DejaVuSans-28" x="831.238281"/>
     <use xlink:href="#DejaVuSans-69" x="870.251953"/>
     <use xlink:href="#DejaVuSans-6e" x="898.035156"/>
     <use xlink:href="#DejaVuSans-66" x="961.414062"/>
     <use xlink:href="#DejaVuSans-6f" x="996.619141"/>
     <use xlink:href="#DejaVuSans-72" x="1057.800781"/>
     <use xlink:href="#DejaVuSans-6d" x="1097.164062"/>
     <use xlink:href="#DejaVuSans-65" x="1194.576172"/>
     <use xlink:href="#DejaVuSans-72" x="1256.099609"/>
     <use xlink:href="#DejaVuSans-2c" x="1297.212891"/>
     <use xlink:href="#DejaVuSans-20" x="1329"/>
     <use xlink:href="#DejaVuSans-49" x="1360.787109"/>
     <use xlink:href="#DejaVuSans-6e" x="1390.279297"/>
     <use xlink:href="#DejaVuSans-64" x="1453.658203"/>
     <use xlink:href="#DejaVuSans-65" x="1517.134766"/>
     <use xlink:href="#DejaVuSans-78" x="1576.908203"/>
     <use xlink:href="#DejaVuSans-3a" x="1636.087891"/>
     <use xlink:href="#DejaVuSans-20" x="1669.779297"/>
     <use xlink:href="#DejaVuSans-31" x="1701.566406"/>
     <use xlink:href="#DejaVuSans-30" x="1765.189453"/>
     <use xlink:href="#DejaVuSans-30" x="1828.8125"/>
     <use xlink:href="#DejaVuSans-29" x="1892.435547"/>
    </g>
   </g>
   <g id="legend_1">
    <g id="patch_7">
     <path d="M 384.369388 183.12 
L 477.772513 183.12 
Q 479.772513 183.12 479.772513 181.12 
L 479.772513 152.76375 
Q 479.772513 150.76375 477.772513 150.76375 
L 384.369388 150.76375 
Q 382.369388 150.76375 382.369388 152.76375 
L 382.369388 181.12 
Q 382.369388 183.12 384.369388 183.12 
z
" style="fill: #ffffff; opacity: 0.8; stroke: #cccccc; stroke-linejoin: miter"/>
    </g>
    <g id="line2d_17">
     <path d="M 386.369388 158.862188 
L 396.369388 158.862188 
L 406.369388 158.862188 
" style="fill: none; stroke: #1f77b4; stroke-width: 1.5; stroke-linecap: square"/>
    </g>
    <g id="text_16">
     <!-- Groundtruth -->
     <g transform="translate(414.369388 162.362188) scale(0.1 -0.1)">
      <defs>
       <path id="DejaVuSans-47" d="M 3809 666 
L 3809 1919 
L 2778 1919 
L 2778 2438 
L 4434 2438 
L 4434 434 
Q 4069 175 3628 42 
Q 3188 -91 2688 -91 
Q 1594 -91 976 548 
Q 359 1188 359 2328 
Q 359 3472 976 4111 
Q 1594 4750 2688 4750 
Q 3144 4750 3555 4637 
Q 3966 4525 4313 4306 
L 4313 3634 
Q 3963 3931 3569 4081 
Q 3175 4231 2741 4231 
Q 1884 4231 1454 3753 
Q 1025 3275 1025 2328 
Q 1025 1384 1454 906 
Q 1884 428 2741 428 
Q 3075 428 3337 486 
Q 3600 544 3809 666 
z
" transform="scale(0.015625)"/>
       <path id="DejaVuSans-68" d="M 3513 2113 
L 3513 0 
L 2938 0 
L 2938 2094 
Q 2938 2591 2744 2837 
Q 2550 3084 2163 3084 
Q 1697 3084 1428 2787 
Q 1159 2491 1159 1978 
L 1159 0 
L 581 0 
L 581 4863 
L 1159 4863 
L 1159 2956 
Q 1366 3272 1645 3428 
Q 1925 3584 2291 3584 
Q 2894 3584 3203 3211 
Q 3513 2838 3513 2113 
z
" transform="scale(0.015625)"/>
      </defs>
      <use xlink:href="#DejaVuSans-47"/>
      <use xlink:href="#DejaVuSans-72" x="77.490234"/>
      <use xlink:href="#DejaVuSans-6f" x="116.353516"/>
      <use xlink:href="#DejaVuSans-75" x="177.535156"/>
      <use xlink:href="#DejaVuSans-6e" x="240.914062"/>
      <use xlink:href="#DejaVuSans-64" x="304.292969"/>
      <use xlink:href="#DejaVuSans-74" x="367.769531"/>
      <use xlink:href="#DejaVuSans-72" x="406.978516"/>
      <use xlink:href="#DejaVuSans-75" x="448.091797"/>
      <use xlink:href="#DejaVuSans-74" x="511.470703"/>
      <use xlink:href="#DejaVuSans-68" x="550.679688"/>
     </g>
    </g>
    <g id="line2d_18">
     <path d="M 386.369388 173.540312 
L 396.369388 173.540312 
L 406.369388 173.540312 
" style="fill: none; stroke: #ff7f0e; stroke-width: 1.5; stroke-linecap: square"/>
    </g>
    <g id="text_17">
     <!-- Prediction -->
     <g transform="translate(414.369388 177.040312) scale(0.1 -0.1)">
      <defs>
       <path id="DejaVuSans-50" d="M 1259 4147 
L 1259 2394 
L 2053 2394 
Q 2494 2394 2734 2622 
Q 2975 2850 2975 3272 
Q 2975 3691 2734 3919 
Q 2494 4147 2053 4147 
L 1259 4147 
z
M 628 4666 
L 2053 4666 
Q 2838 4666 3239 4311 
Q 3641 3956 3641 3272 
Q 3641 2581 3239 2228 
Q 2838 1875 2053 1875 
L 1259 1875 
L 1259 0 
L 628 0 
L 628 4666 
z
" transform="scale(0.015625)"/>
       <path id="DejaVuSans-63" d="M 3122 3366 
L 3122 2828 
Q 2878 2963 2633 3030 
Q 2388 3097 2138 3097 
Q 1578 3097 1268 2742 
Q 959 2388 959 1747 
Q 959 1106 1268 751 
Q 1578 397 2138 397 
Q 2388 397 2633 464 
Q 2878 531 3122 666 
L 3122 134 
Q 2881 22 2623 -34 
Q 2366 -91 2075 -91 
Q 1284 -91 818 406 
Q 353 903 353 1747 
Q 353 2603 823 3093 
Q 1294 3584 2113 3584 
Q 2378 3584 2631 3529 
Q 2884 3475 3122 3366 
z
" transform="scale(0.015625)"/>
      </defs>
      <use xlink:href="#DejaVuSans-50"/>
      <use xlink:href="#DejaVuSans-72" x="58.552734"/>
      <use xlink:href="#DejaVuSans-65" x="97.416016"/>
      <use xlink:href="#DejaVuSans-64" x="158.939453"/>
      <use xlink:href="#DejaVuSans-69" x="222.416016"/>
      <use xlink:href="#DejaVuSans-63" x="250.199219"/>
      <use xlink:href="#DejaVuSans-74" x="305.179688"/>
      <use xlink:href="#DejaVuSans-69" x="344.388672"/>
      <use xlink:href="#DejaVuSans-6f" x="372.171875"/>
      <use xlink:href="#DejaVuSans-6e" x="433.353516"/>
     </g>
    </g>
   </g>
  </g>
 </g>
 <defs>
  <clipPath id="p3cfc2390d9">
   <rect x="42.01" y="26.88" width="442.762513" height="161.24"/>
  </clipPath>
 </defs>
</svg>
